<svg xmlns="http://www.w3.org/2000/svg" width="70.592" height="129.732" viewBox="0 0 70.592 129.732" data-name="Group 16178"><defs><clipPath id="ampoules-path"><path fill="#fff" d="M0 0h70.592v129.732H0z" data-name="Rectangle 1273"/></clipPath></defs><g clip-path="url(#ampoules-path)" data-name="Group 16177"><path fill="#fff" d="M63.685 48.166c2.255-4.2 6.8-12.856 6.859-33.594a4.3 4.3 0 0 0-8.152-2.25c-2.767 4.885-10.977 19.428-11.573 32.251l-.384 1.127a9.889 9.889 0 0 1-1.572 2.875 11.089 11.089 0 0 1-1.4 1.457l-.426.372a23.11 23.11 0 0 0-7.274 11.282l-9.455 33.752V68.126A27.513 27.513 0 0 0 25.6 52.858l-.386-.591a13.256 13.256 0 0 1-1.132-2.1 11.421 11.421 0 0 1-.883-3.8l-.081-1.444c1.24-5.54 3.674-16.939-2.923-40.757A4.894 4.894 0 0 0 15.154 0a4.944 4.944 0 0 0-5.04 4.206c-1.607 6.5-6.356 25.823-2.92 40.731l-.079 1.413a11.788 11.788 0 0 1-.88 3.8 13.259 13.259 0 0 1-1.143 2.124l-.369.563A27.545 27.545 0 0 0 0 68.126V121.6c0 3.563 2.849 6.64 6.776 7.316a53.647 53.647 0 0 0 9.134.816 44.348 44.348 0 0 0 7.791-.68 7.681 7.681 0 0 0 6.607-7.283v-10.128a7.681 7.681 0 0 0 1.173.7 44.963 44.963 0 0 0 7.2 2.726 37.212 37.212 0 0 0 6.45 1.214 6.446 6.446 0 0 0 6.986-4.39L64.249 68.54a23.085 23.085 0 0 0-.353-13.4l-.178-.564a11.108 11.108 0 0 1-.44-1.952 9.585 9.585 0 0 1 .146-3.269Zm-37.737 73.6a3.354 3.354 0 0 1-3.018 2.992 44.2 44.2 0 0 1-15.416-.142c-1.827-.316-3.154-1.582-3.154-3.016V68.126a23.226 23.226 0 0 1 4-12.883l.369-.563a17.571 17.571 0 0 0 1.522-2.828 16.212 16.212 0 0 0 1.215-5.24 9.683 9.683 0 0 0 .042-2.369c-.827-3.475-3.344-14.052 2.878-39.16l.05-.3.011-.115a.8.8 0 0 1 .706-.311.807.807 0 0 1 .707.307l.047.342.029.135c6.44 23.147 4 34.024 2.828 39.252l-.038.168.115 2.044a15.781 15.781 0 0 0 1.221 5.26 17.425 17.425 0 0 0 1.505 2.795l.389.6a23.2 23.2 0 0 1 3.991 12.867Zm33.7-68.684a14.611 14.611 0 0 0 .584 2.6l.179.57a19.469 19.469 0 0 1 .314 11.3L48.589 110.9a2.813 2.813 0 0 1-3.115 1.734 37.081 37.081 0 0 1-12.424-3.6 2.881 2.881 0 0 1-1.866-3.152l12.1-43.209a19.487 19.487 0 0 1 6.148-9.5l.425-.372a14.693 14.693 0 0 0 1.87-1.941 13.593 13.593 0 0 0 2.167-3.959 8.125 8.125 0 0 0 .57-1.9c.118-3 .477-12.111 11.185-30.991l.107-.228.035-.091a.667.667 0 0 1 .641-.091.676.676 0 0 1 .5.407l-.039.287-.007.116c-.033 20.16-4.466 28.4-6.6 32.356l-.069.128-.37 1.678a13.243 13.243 0 0 0-.2 4.527" data-name="Path 33783"/></g></svg>