<svg xmlns="http://www.w3.org/2000/svg" xmlns:xlink="http://www.w3.org/1999/xlink" width="105.823" height="106.04" viewBox="0 0 105.823 106.04">
  <defs>
    <clipPath id="clip-path">
      <rect id="Rectangle_1271" data-name="Rectangle 1271" width="105.823" height="106.04" fill="#fff"/>
    </clipPath>
  </defs>
  <g id="Group_16174" data-name="Group 16174" transform="translate(0 0)">
    <g id="Group_16173" data-name="Group 16173" transform="translate(0 0)" clip-path="url(#clip-path)">
      <path id="Path_33770" data-name="Path 33770" d="M19.288,92.3h-.077a2.331,2.331,0,0,1-1.495-.568c-.029-.024-.054-.049-.08-.076L.667,74.8c-.013-.012-.028-.028-.04-.041a2.487,2.487,0,0,1-.523-2.4,4.331,4.331,0,0,1,1.175-1.933l.05-.049a4.307,4.307,0,0,1,1.885-1.154,2.4,2.4,0,0,1,2.437.524c.011.011.022.02.03.03l4.479,4.454.625.593a.173.173,0,0,0,.023.02l7.4,7.276L22.7,86.576l.025.028c1.061,1.1.784,2.952-.659,4.4l-.024.025A4.129,4.129,0,0,1,19.288,92.3M3.655,72.919,19.516,88.674a1.625,1.625,0,0,0,.125-.108c.031-.034.06-.064.085-.095l-3.932-3.9-7.387-7.26-.629-.6-.029-.026-3.942-3.92-.031.034-.079.078c-.014.013-.029.028-.041.041" transform="translate(0 13.741)" fill="#fff"/>
      <path id="Path_33771" data-name="Path 33771" d="M15.183,85.419a1.72,1.72,0,0,1-1.211-.5l-6.883-6.81a1.721,1.721,0,0,1-.036-2.466L17.766,64.907a1.711,1.711,0,0,1,1.217-.506h0a1.721,1.721,0,0,1,1.217.5l6.861,6.861a1.72,1.72,0,0,1,0,2.429L16.4,84.912a1.712,1.712,0,0,1-1.219.507m-4.472-8.566,4.462,4.417,8.243-8.284-4.431-4.43Z" transform="translate(1.303 12.807)" fill="#fff"/>
      <path id="Path_33772" data-name="Path 33772" d="M34.831,85.551a2.05,2.05,0,0,1-1.481-.6l-7.716-7.57-.627-.59a.391.391,0,0,1-.04-.037L17.01,68.791,8.635,60.6a2.213,2.213,0,0,1-.363-2.591A7,7,0,0,1,9.862,55.77l.04-.04a7.093,7.093,0,0,1,2.042-1.5l.037-.017a3.325,3.325,0,0,1,1.368-.327,2.132,2.132,0,0,1,1.157.32,1.689,1.689,0,0,1,.3.24L19.3,58.947l15.529,15.5,4.545,4.429a2.229,2.229,0,0,1,.375,2.6,7.254,7.254,0,0,1-1.59,2.235l-.061.062a5.626,5.626,0,0,1-2.908,1.758l-.029,0a2.738,2.738,0,0,1-.326.022M27.382,74.3l.621.584a.276.276,0,0,0,.028.025L35.1,81.842a5,5,0,0,0,.541-.483l.014-.016.079-.078a5.153,5.153,0,0,0,.533-.615L32.408,76.9,16.864,61.378l-3.821-3.83a5.264,5.264,0,0,0-.689.6l-.059.06a.168.168,0,0,0-.02.022,4.922,4.922,0,0,0-.53.6l7.686,7.519Z" transform="translate(1.596 10.715)" fill="#fff"/>
      <path id="Path_33773" data-name="Path 33773" d="M76.88,21.949a1.728,1.728,0,0,1-1.212-.5L69.21,15.031a1.72,1.72,0,0,1,.441-2.756l9.168-4.612a1.722,1.722,0,0,1,1.995.324l1.859,1.879a1.718,1.718,0,0,1,.316,1.977L78.42,21a1.722,1.722,0,0,1-1.261.928,1.556,1.556,0,0,1-.278.024m-3.55-7.674L76.4,17.33l2.958-5.921-.111-.113Z" transform="translate(13.662 1.488)" fill="#fff"/>
      <path id="Path_33774" data-name="Path 33774" d="M78.849,13.353a1.72,1.72,0,0,1-1.217-2.937L87.548.5a1.72,1.72,0,1,1,2.432,2.434l-9.915,9.912a1.719,1.719,0,0,1-1.217.5" transform="translate(15.337 0)" fill="#fff"/>
      <path id="Path_33775" data-name="Path 33775" d="M46.813,42.789a1.715,1.715,0,0,1-1.188-.476l-5.6-5.358A1.72,1.72,0,1,1,42.4,34.469L48,39.826a1.72,1.72,0,0,1-1.188,2.964" transform="translate(7.853 6.76)" fill="#fff"/>
      <path id="Path_33776" data-name="Path 33776" d="M40.716,48.77a1.709,1.709,0,0,1-1.188-.477L34,43a1.72,1.72,0,1,1,2.376-2.486l5.53,5.288a1.72,1.72,0,0,1-1.188,2.965" transform="translate(6.655 7.962)" fill="#fff"/>
      <path id="Path_33777" data-name="Path 33777" d="M34.618,54.751a1.71,1.71,0,0,1-1.188-.476l-5.461-5.221a1.721,1.721,0,0,1,2.38-2.488l5.457,5.221a1.72,1.72,0,0,1-1.188,2.964" transform="translate(5.456 9.165)" fill="#fff"/>
      <path id="Path_33778" data-name="Path 33778" d="M31.6,85.53a1.726,1.726,0,0,1-1.217-.5L15.957,70.616a1.723,1.723,0,0,1,0-2.432L71.238,12.7A8.69,8.69,0,0,1,77.3,10.043h.036a6.643,6.643,0,0,1,4.733,1.881l6.778,6.742a6.6,6.6,0,0,1,1.9,4.726,8.758,8.758,0,0,1-2.633,6.1L32.82,85.023a1.717,1.717,0,0,1-1.218.507ZM19.6,69.4,31.6,81.375,85.674,27.067A5.292,5.292,0,0,0,87.3,23.392a3.184,3.184,0,0,0-.882-2.289l-6.775-6.739a3.231,3.231,0,0,0-2.309-.88h-.02a5.228,5.228,0,0,0-3.633,1.635Z" transform="translate(3.073 1.997)" fill="#fff"/>
      <path id="Path_33779" data-name="Path 33779" d="M52.909,36.816a1.707,1.707,0,0,1-1.192-.48L46.056,30.89a1.721,1.721,0,0,1,2.387-2.479L54.1,33.857a1.719,1.719,0,0,1-1.193,2.959" transform="translate(9.054 5.554)" fill="#fff"/>
    </g>
  </g>
</svg>
