<svg xmlns="http://www.w3.org/2000/svg" width="127.339" height="125.136" viewBox="0 0 127.339 125.136" data-name="Group 16176"><defs><clipPath id="leaves-path"><path fill="#fff" d="M0 0h127.339v125.136H0z" data-name="Rectangle 1272"/></clipPath></defs><g fill="#fff" fill-rule="evenodd" clip-path="url(#leaves-path)" data-name="Group 16175"><path d="M35.906 55.11c.864 5.056 2.024 8.7 6.223 12.244-2.331-15.412-5.532-30.383-21.277-37.012a37.074 37.074 0 0 1 22.661 15.321c4.571 6.567 7.442 14.123 9.77 21.567a153.381 153.381 0 0 0-.946 7c-1.848 16.829 3.507 23.6 12.517 30-11.542-11.156-8.121-20.154-5.06-43.515 1.363-10.4 3.073-19.969 2.552-30.507-.478-9.662-2.121-18.661-5.261-24.85 10.843 15.845 14 34.006 14.6 50.837.515 14.307-.958 26.919-3.1 42.476 1.509-4.884 2.948-7.7 5.3-10.009-.977-2.94-.221-8.181 2.866-9.266-2.617-1.543-2.43-8.367.841-11-3.091-1.063-3.019-7.888.063-10.781-3.526-.851-3.8-8.1-.828-11.307-3.82-.54-4.835-6.435-2.024-9.931-3.758-.5-4.131-5.291-1.912-8.427-3.453.277-4.751-4.248-2.883-7.679-3.133.458-4.7-3.891-3.268-6.817-2.133.746-4.336-2.7-3.58-5.128-1.81.225-4.388-2.27-3.614-4.295C57.013 3.824 54.235.971 52.964 0a38.663 38.663 0 0 1 4.273 10.129c4.156 16.337.3 33.271-2.717 49.853-2.335-1.869-3.614-6.973-1.636-8.648-3.544.335-5.991-4.93-4.345-8.084-3.424 1.2-6.629-3.456-5.77-6.706-2.828 1.844-6.833-1.263-6.856-4.835-1.835 1.665-6.4-.186-6.781-2.71-1.021 1.23-5.84 1.163-7.42-1.19-1.833 1.413-6.031 1.754-8.633 1.943A25.107 25.107 0 0 1 20.694 32c9.777 4.687 13.521 13.222 15.212 23.111" data-name="Path 33780"/><path d="M35.479 96.864C29.8 80.427 28.353 60.456 7.567 57.439c10.436-.336 18.2 3.542 23.251 8.239 5.852 5.438 9.628 12.531 12.9 19.389 4.466 8.734 8.457 20.484 18.506 24.437-2.932-2-5.984-5.214-5.564-9.371-2.936-.467-5.157-5.087-3.97-8.69-2.6.087-5.112-4.708-3.371-7.917-2.81.347-6.255-4.936-4.5-7.727-3.292 1.086-6.631-4.89-4.432-7.265-3.376 1.064-6.242-2.954-4.967-6.04-3.177 1.788-6.713-1.54-6.2-4.537a4.4 4.4 0 0 1-7.065-2.682c-1.6 1.84-6.423 1.237-7.032-.862-.928 1.586-4.63 2.207-6.838.408-.812 1.4-6.126 2.892-8.283 3.749a23.274 23.274 0 0 1 8.309.435c18.473 4.123 18.247 24.775 22.633 41.157 6.012 22.458 22.371 27.848 37.612 23.679-15.336 1.486-26.513-7.969-33.077-26.977" data-name="Path 33781"/><path d="M119.513 54.639c-2.637 2.261-6.7.751-7.259-.191-.609 2.1-5.463 2.667-7.067.827a4.4 4.4 0 0 1-7.065 2.682c.51 3-3.027 6.324-6.2 4.537.811 1.963-.4 4.706-2.257 6.169 1.13-15.258 3.042-29.871 17.578-36.2a23.232 23.232 0 0 1 7.019-1.865c-2.525-.153-7.011-.552-8.919-2.044-1.278 2.125-5.931 2.374-7.124 1.075-.406 2.518-4.994 4.308-6.811 2.619-.064 3.571-4.1 6.624-6.91 4.742.822 3.261-2.435 7.876-5.846 6.628a5.659 5.659 0 0 1 .2 4.16c-.718 2.338-2.741 4.7-.3 7.1a57.95 57.95 0 0 1 5.107-8.783 36.715 36.715 0 0 1 22.755-14.946c-18.63 7.558-19.919 26.708-22.938 44.889a2.3 2.3 0 0 1-1.412.082c1.755 2.791-1.293 7.821-4.1 7.474 1.741 3.208-1.655 8.78-4.426 8.189 1.89 3.6-1.9 8.918-4.86 8.67.451 2.4-.492 6.394-4.325 7.282-.34 3.452-4.648 7.2-7.672 8.6 10.143-2.979 15.046-9.06 18.477-14.716 3.324-5.479 5.787-11.309 8.47-16.556 3.274-6.858 7.049-13.951 12.9-19.389a31.964 31.964 0 0 1 23.25-8.345c-20.785 3.014-22.234 22.98-27.911 39.418-6.564 19.008-21.18 24.189-35.8 22.986 15.242 4.169 33.877 2.771 39.888-19.687 4.382-16.368 4.5-36.951 23.015-41.044a26.764 26.764 0 0 1 8.377-.436c-2.5-.9-6.488-2.124-7.827-3.931" data-name="Path 33782"/></g></svg>