<svg xmlns="http://www.w3.org/2000/svg" xmlns:xlink="http://www.w3.org/1999/xlink" width="228.187" height="47.463" viewBox="0 0 228.187 47.463">
  <defs>
    <clipPath id="clip-path">
      <rect id="Rectangle_683" data-name="Rectangle 683" width="43.728" height="227.499" transform="matrix(0.016, -1, 1, 0.016, 0, 43.723)" fill="none"/>
    </clipPath>
  </defs>
  <g id="Group_14855" data-name="Group 14855" transform="translate(0 -0.001)">
    <g id="Group_14850" data-name="Group 14850">
      <g id="Group_14849" data-name="Group 14849" clip-path="url(#clip-path)">
        <path id="Path_28572" data-name="Path 28572" d="M213.279,22.643c.014.891.016,1.685.019,2.389V27c0,1.517,0,2.726-.012,3.632v1.189l-1.084.035c-.439.012-.805.021-1.1.025a23.3,23.3,0,0,1-2.829-.166,11.4,11.4,0,0,1-2.413-.546,5.023,5.023,0,0,1-2.169-1.355,3.265,3.265,0,0,1-.762-2.281,2.823,2.823,0,0,1,.893-2.138,6.309,6.309,0,0,1,2.151-1.371,19.228,19.228,0,0,1,4.153-1c1.414-.2,2.462-.325,3.151-.376m3.485-6.329a7.913,7.913,0,0,0-2.059-3.058,8.688,8.688,0,0,0-3.653-1.891,19.4,19.4,0,0,0-4.889-.566c-1.175,0-2.109.023-2.789.06l-1.634.1-.442,3.7,2.343-.14c.477-.03,1.051-.045,1.73-.048a20.951,20.951,0,0,1,2.834.167,8.594,8.594,0,0,1,2.153.56,4.313,4.313,0,0,1,2.068,1.609,5.439,5.439,0,0,1,.813,2.436,48.753,48.753,0,0,0-5.353.73A22.156,22.156,0,0,0,203.86,21.1a9.825,9.825,0,0,0-3.829,2.667,5.948,5.948,0,0,0-1.414,3.969,5.874,5.874,0,0,0,1.2,3.719,8.083,8.083,0,0,0,3.086,2.4,13.612,13.612,0,0,0,3.345,1.008,21.471,21.471,0,0,0,3.823.343c1.984,0,3.647-.056,4.91-.156s2.435-.2,2.435-.2,0-1.758.015-4.137.018-5.451.013-9.227a15.439,15.439,0,0,0-.681-5.174" fill="#285c3f"/>
        <path id="Path_28573" data-name="Path 28573" d="M194.414,26.056q0-1.3.032-3.385t.029-4.974a7.326,7.326,0,0,0-1.869-5.266,6.563,6.563,0,0,0-4.934-1.931,11.69,11.69,0,0,0-3.657.74,29.757,29.757,0,0,0-4.907,2.308l.021-2.442-4.234,0,0,.332q.07,3.628.085,6.845C175,20.434,175,22.3,175,23.907q.007,5.2-.038,7.839c-.034,1.758-.042,3.13-.042,3.13l4.262,0s-.014-1.763-.059-4.263-.059-4.625-.059-6.387c0-1.353,0-2.856.021-4.5l.017-2.533a27.2,27.2,0,0,1,3.944-1.987,9.461,9.461,0,0,1,3.326-.8,3.7,3.7,0,0,1,2.989,1.022,5.98,5.98,0,0,1,.938,3.56q.012,1.069.031,3.391c.013,1.541.023,2.707.024,3.5,0,.568-.019,2.041-.034,4.43s-.043,3.789-.055,4.218l-.011.341,4.277-.006s-.013-1.527-.056-3.618c-.038-2.072-.063-3.8-.064-5.183" fill="#285c3f"/>
        <path id="Path_28574" data-name="Path 28574" d="M168.15,11.115l-4.282.007.005.332q.075,3.786.088,6.6t.012,5.173q.006,2.686-.026,6.823c-.022,3.689-.043,4.368-.05,4.488l-.02.346,4.286-.006-.055-3.647c-.047-2.143-.063-4.99-.067-8.535,0-1.488.009-3.188.028-5.2Z" fill="#285c3f"/>
      </g>
    </g>
    <rect id="Rectangle_684" data-name="Rectangle 684" width="4.676" height="4.588" transform="translate(163.66 2.758)" fill="#285c3f"/>
    <g id="Group_14852" data-name="Group 14852">
      <g id="Group_14851" data-name="Group 14851" clip-path="url(#clip-path)">
        <path id="Path_28575" data-name="Path 28575" d="M157.131,25.253c0-1.238,0-2.4.029-3.506s.031-2.46.028-4.083a7.189,7.189,0,0,0-1.865-5.193,6.85,6.85,0,0,0-5.159-1.935,11.281,11.281,0,0,0-3.867.871,26.752,26.752,0,0,0-4.6,2.347,5.772,5.772,0,0,0-2.121-2.217,7.224,7.224,0,0,0-3.913-.984,10.261,10.261,0,0,0-4.233,1.11,26.064,26.064,0,0,0-3.4,1.856l.019-2.364-4.233,0,0,.337c.053,2.673.076,5.072.089,7.187s.015,3.8.018,5.047c0,3.814-.007,6.554-.039,8.206l-.044,3,4.267-.007s-.018-1.826-.058-4.36-.063-4.7-.067-6.507c0-1.06,0-2.437.02-4.108.013-1.416.019-2.321.021-2.735a29.877,29.877,0,0,1,3.727-2.034,7.45,7.45,0,0,1,2.863-.723,4.94,4.94,0,0,1,2.008.322,2.755,2.755,0,0,1,1.1.943,3.771,3.771,0,0,1,.54,1.425,12.428,12.428,0,0,1,.177,1.866c.022.737.027,1.869.04,3.415l.02,3.459c0,2.278-.017,4.257-.044,5.927s-.042,3.1-.042,3.1l4.267,0v-.327c0-.14-.06-2.824-.06-2.824-.044-1.71-.062-3.824-.064-6.353,0-1.156.005-2.36.017-3.636s.022-2.518.018-3.751c0-.371,0-.669-.009-.9l-.01-.265a22.125,22.125,0,0,1,3.67-1.808,8.755,8.755,0,0,1,2.866-.6,3.891,3.891,0,0,1,2.9.944,5.37,5.37,0,0,1,1,3.57c.016.776.031,1.937.039,3.492l.012,3.372c0,1.734-.006,3.583-.029,5.547-.025,2.422-.041,3.063-.052,3.168l-.035.361,4.3,0v-.327c0-.125-.021-1.074-.064-2.843s-.056-3.925-.057-6.473" fill="#285c3f"/>
        <path id="Path_28576" data-name="Path 28576" d="M117.1,11.045q-2.912,7.06-5.375,12.91c-1.338,3.18-1.994,4.711-2.305,5.433-.4-.941-1.219-2.9-2.475-5.873-1.706-4.045-3.428-8.263-5.125-12.538l-.125-.32-4.031,1.764.135.3q3.867,8.631,6.546,14.835,2.436,5.625,2.816,6.524l-4.807,10,3.792,1.391s2.08-4.671,5.351-12.033,6.39-14.324,9.354-20.868l.145-.316-3.771-1.506Z" fill="#285c3f"/>
        <path id="Path_28577" data-name="Path 28577" d="M89.266,30.257a4.946,4.946,0,0,1-1.481-4.026l-.007-5.664c0-.761.007-1.926.029-3.51.019-1.214.024-2.056.032-2.533l8.178-.01-.009-3.328-8.172.01,0-5.413-3.973,0,.007,5.413-4.046.006,0,3.328,3.834,0c0,2.722,0,5-.021,6.863q-.033,2.9-.033,5.437c0,2.788.855,4.892,2.523,6.249s4.108,2.023,7.3,2.017c.309,0,.67,0,1.094-.02.439-.017.712-.032.824-.049l.242-.04.5-3.517s-1.821.023-2.1.024a7.4,7.4,0,0,1-4.723-1.234" fill="#285c3f"/>
        <path id="Path_28578" data-name="Path 28578" d="M74.762,22.516a23.714,23.714,0,0,0-2.393-1.224c-1.07-.5-1.925-.932-2.541-1.289a5.275,5.275,0,0,1-1.311-1.057A1.871,1.871,0,0,1,68,17.594a2.318,2.318,0,0,1,.376-1.2A3.03,3.03,0,0,1,69.651,15.3a5.613,5.613,0,0,1,1.525-.49,10.365,10.365,0,0,1,1.939-.185c.987,0,1.887.031,2.714.093.847.057,1.323.089,1.429.091l.361,0-.314-3.694H77c-.087,0-.423-.012-1.01-.05s-1.367-.042-2.307-.038a22.293,22.293,0,0,0-3.211.241,9.432,9.432,0,0,0-3.089,1.008,7.311,7.311,0,0,0-2.605,2.279,5.594,5.594,0,0,0-.977,3.23,5.752,5.752,0,0,0,.868,3.144,7.516,7.516,0,0,0,2.447,2.319,26.183,26.183,0,0,0,2.7,1.349,16.418,16.418,0,0,1,2.455,1.283,5.565,5.565,0,0,1,1.249,1.066,2.017,2.017,0,0,1,.407,1.307,2.516,2.516,0,0,1-.483,1.562,3.8,3.8,0,0,1-1.56,1.135,6.851,6.851,0,0,1-1.978.473,19.7,19.7,0,0,1-2.02.14c-.9,0-1.815-.035-2.724-.1s-1.443-.1-1.578-.122L63.2,31.3l.181,3.649.269.043c.1.016.485.046,1.154.1l.221.023c.808.067,1.6.1,2.348.1a19.227,19.227,0,0,0,4.3-.459,11.2,11.2,0,0,0,3.4-1.36,6.91,6.91,0,0,0,2.253-2.256,5.9,5.9,0,0,0,.871-3.188,5.387,5.387,0,0,0-.9-3.107,8.393,8.393,0,0,0-2.538-2.329" fill="#285c3f"/>
        <path id="Path_28579" data-name="Path 28579" d="M48.968,32.036a6.78,6.78,0,0,1-2.358-.4,5.8,5.8,0,0,1-1.951-1.149,8.052,8.052,0,0,1-2.2-3.234,12.181,12.181,0,0,1-.683-4.163,11.254,11.254,0,0,1,.67-3.87,8.15,8.15,0,0,1,1.832-3.028,6.45,6.45,0,0,1,2.081-1.512,6.739,6.739,0,0,1,2.614-.477,6.814,6.814,0,0,1,2.424.444,5.812,5.812,0,0,1,2,1.266,8.2,8.2,0,0,1,2.08,3.29,12.563,12.563,0,0,1,.684,4.071,10.982,10.982,0,0,1-.665,3.818,8.523,8.523,0,0,1-1.905,3.08,5.981,5.981,0,0,1-2.069,1.386,6.686,6.686,0,0,1-2.556.483m7.98-18.15A10.26,10.26,0,0,0,53.4,11.448a11.58,11.58,0,0,0-4.426-.809,11.307,11.307,0,0,0-4.422.885,11.037,11.037,0,0,0-3.673,2.531,11.518,11.518,0,0,0-2.59,4.085,14.1,14.1,0,0,0-.823,4.947,14.521,14.521,0,0,0,.972,5.275,11.648,11.648,0,0,0,2.767,4.23,10.688,10.688,0,0,0,3.537,2.245,11.675,11.675,0,0,0,4.235.758,10.7,10.7,0,0,0,7.736-3.041,11.837,11.837,0,0,0,2.8-4.26,14.163,14.163,0,0,0,.967-5.185,14.328,14.328,0,0,0-.875-5.062,11.963,11.963,0,0,0-2.653-4.161" fill="#b30018"/>
      </g>
    </g>
    <rect id="Rectangle_686" data-name="Rectangle 686" width="4.679" height="4.59" transform="translate(28.261 2.895)" fill="#b30018"/>
    <g id="Group_14854" data-name="Group 14854">
      <g id="Group_14853" data-name="Group 14853" clip-path="url(#clip-path)">
        <path id="Path_28580" data-name="Path 28580" d="M32.751,11.251l-4.281.007,0,.332q.075,3.786.084,6.6t.02,5.173q0,2.687-.029,6.823c-.017,2.74-.037,4.248-.051,4.483l-.025.351,4.3-.006s-.024-1.5-.07-3.647-.058-4.99-.062-8.535q0-2.232.03-5.1Z" fill="#b30018"/>
        <path id="Path_28581" data-name="Path 28581" d="M5.111,31.367q-.008-.859-.037-3.926c-.024-2.639-.043-5.269-.043-7.884,0-1.132,0-2.943.007-5.437.006-2.374.033-4.628.068-6.756.2-.006.482-.016.838-.024C6.542,7.311,7.192,7.3,7.9,7.3a19.114,19.114,0,0,1,3.074.229,8.714,8.714,0,0,1,2.363.694A4.449,4.449,0,0,1,15.085,9.71a3.927,3.927,0,0,1,.628,2.226,4.368,4.368,0,0,1-.567,2.225A5.325,5.325,0,0,1,13.67,15.8a7.116,7.116,0,0,1-2.2,1.018,12.315,12.315,0,0,1-2.9.391l-.37.008.464,3.389s.809,0,1.334-.022,1.209-.023,2.057-.023a8.523,8.523,0,0,1,2.848.456,5.241,5.241,0,0,1,2.013,1.174,5.657,5.657,0,0,1,1.167,1.671,4.782,4.782,0,0,1,.387,1.957,4.714,4.714,0,0,1-.648,2.5,4.828,4.828,0,0,1-1.849,1.737,9.917,9.917,0,0,1-3.673,1.1,39.533,39.533,0,0,1-4.83.277c-.463,0-.949-.011-1.45-.034ZM20.929,20.382a8.152,8.152,0,0,0-2.706-1.8,10.865,10.865,0,0,0-2.32-.659,8.385,8.385,0,0,0,2.792-2.275,6.734,6.734,0,0,0,1.56-4.376A6.406,6.406,0,0,0,19,7.289,7.871,7.871,0,0,0,15.594,4.83a15.787,15.787,0,0,0-3.425-.875,28.7,28.7,0,0,0-4.387-.313q-2.081,0-4.287.1c-1.47.068-2.319.1-2.531.113l-.308.024S.675,5.654.718,8.27.781,14.421.784,18.9Q.791,22.443.768,26.33T.685,34.6v.3l.3.029q.273.027,2.676.1c1.593.05,3.148.076,4.655.077a28.454,28.454,0,0,0,5.493-.483A16.549,16.549,0,0,0,18.254,33.1a9.066,9.066,0,0,0,3.533-3.111,7.756,7.756,0,0,0,1.222-4.29,7.81,7.81,0,0,0-.528-3.047,7.145,7.145,0,0,0-1.552-2.27" fill="#b30018"/>
        <path id="Path_28582" data-name="Path 28582" d="M222.739,11.764l1.074,0a1.328,1.328,0,0,0,.541-.082.666.666,0,0,0,.284-.265.863.863,0,0,0,.108-.427.733.733,0,0,0-.2-.552.842.842,0,0,0-.608-.2h-1.2Zm-.495,2.583-.006-4.619h1.676a1.726,1.726,0,0,1,.773.128.964.964,0,0,1,.412.431,1.383,1.383,0,0,1,.162.7,1.165,1.165,0,0,1-1.061,1.259,1.164,1.164,0,0,1,.319.26,2.813,2.813,0,0,1,.394.585l.664,1.258h-.626l-.51-.962a5.247,5.247,0,0,0-.444-.758.843.843,0,0,0-.29-.265.874.874,0,0,0-.389-.064h-.583l.005,2.052Z" fill="#303915"/>
        <path id="Path_28583" data-name="Path 28583" d="M223.748,8.245a3.8,3.8,0,1,0,3.809,3.8,3.808,3.808,0,0,0-3.809-3.8m.006,8.105a4.3,4.3,0,1,1,4.3-4.307,4.308,4.308,0,0,1-4.3,4.307" fill="#303915"/>
      </g>
    </g>
  </g>
</svg>
