<svg xmlns="http://www.w3.org/2000/svg" xmlns:xlink="http://www.w3.org/1999/xlink" width="124.456" height="74.125" viewBox="0 0 124.456 74.125"><defs><clipPath id="a"><rect width="124.456" height="74.125" fill="none"/></clipPath><clipPath id="b"><path d="M10.3,17.462a18.575,18.575,0,0,1,6.521-1.31c6.162-.342,19.969,7.68,19.969,7.68,20.32,10.077,29.581,7.611,33.231,6.681,1.535-.391,2,1.461,2,1.461,5.505-4.66-.6-11.087-.6-11.087-2.64-3.55-8.048-5.745-8.048-5.745-26.5-11.573-42.666-2.3-42.666-2.3,13.068-9.207,37.974-.568,37.974-.568-1.33-4.355-7.811-7.146-7.811-7.146A34.065,34.065,0,0,0,37.65,2.313C20.29,2.316,10.3,17.462,10.3,17.462" transform="translate(-10.301 -2.313)" fill="none"/></clipPath></defs><g transform="translate(0 0)"><g clip-path="url(#a)"><path d="M10.809,14.074S16.314,1.816,44.99,6.7c0,0,11.647-1,12.985,3.308,0,0-24.692-9.72-37.415-.205,0,0,15.691-10.257,41.75.576a33.7,33.7,0,0,0,4.569,6.293s8.956,4.483,3.6,9.269c0,0-.08-1.358-1.581-.93-3.565,1.022-12.1,4.224-32.089-5.283,0,0-13.593-7.183-19.626-6.684-2.543.143-5.231.42-6.378,1.033" transform="translate(20.039 10.022)" fill="#9db159" fill-rule="evenodd"/><path d="M29.346,10.771s13.485,9.033,7.8,20.982c0,0-2.086-1.35-3.034-.057s1.787.111,1.872.634-3.933,1.053-3.139-.539S41.37,24.007,31.4,13.61c-4.021-4.2-2.058-2.84-2.058-2.84" transform="translate(53.517 19.578)" fill="#00493c"/><path d="M10.3,17.46S25.451-5.516,50.874,5.129c0,0,6.481,2.788,7.811,7.143,0,0-24.909-8.642-37.974.568,0,0,16.165-9.272,42.666,2.3,0,0,5.408,2.195,8.048,5.745,0,0,6.1,6.427.594,11.087,0,0-.462-1.852-1.995-1.461-3.65.928-12.911,3.4-33.231-6.681,0,0-13.81-8.022-19.969-7.68A18.608,18.608,0,0,0,10.3,17.46" transform="translate(19.095 4.289)" fill="#fff" fill-rule="evenodd"/></g></g><g transform="translate(29.398 6.601)"><g clip-path="url(#b)"><path d="M13.583,8.982S34.439-2.025,64.568,13.954c0,0,5.034,3.482-3.607-2.126,0,0-24.03-12.754-43.117-5.031a14.731,14.731,0,0,0-2.517,1.179,10,10,0,0,1-1.744,1.007" transform="translate(-4.216 1.394)" fill="#00493c" fill-rule="evenodd"/><path d="M39.855,23.981S45.538,14.857,27.675,6.3c0,0,16.33,4,15.348,14.632s-3.168,3.045-3.168,3.045" transform="translate(21.909 5.086)" fill="#00493c"/><path d="M58.443,16.043S43.132.007,21.239,12.325c0,0-6.858,4.555-10.482,8.61S22.889,2.8,25.323,2.168,34.188-1.006,41.953.435,52.573,3.029,54.5,4.385s5.759,6.441,6.162,7.078-.639,5.836-.639,5.836Z" transform="translate(-10.455 -6.603)" fill="#00493c"/></g></g><g transform="translate(0 0)"><g clip-path="url(#a)"><path d="M10.274,8.672s8.4-4.167,21.441,4.007c15.169,9.5,31.984,12.349,38.023,8.756,0,0-9.923,5.046-38.345-10.956,0,0-10.736-6-20.625-2.075Z" transform="translate(19.047 13.106)" fill="#00493c" fill-rule="evenodd"/><path d="M0,31.611.16,30.6h1q1.276,0,1.518-.479A35.841,35.841,0,0,0,3.887,24.3l1.276-7.723a25.327,25.327,0,0,0,.42-3.379.929.929,0,0,0-.334-.833,3.1,3.1,0,0,0-1.507-.231H2.611l.157-.99,4.221.086,6.741-.143q3.249,0,4.569,1.367a4.928,4.928,0,0,1,1.333,3.616,6.644,6.644,0,0,1-2.16,4.98,7.427,7.427,0,0,1-5.351,2.069,8.829,8.829,0,0,1-2.768-.568l-.1-1.033a6.936,6.936,0,0,0,2.249.479,3.419,3.419,0,0,0,1.989-.656,4.789,4.789,0,0,0,1.564-2.023,7.3,7.3,0,0,0,.625-3.031,3.977,3.977,0,0,0-.973-2.914,3.793,3.793,0,0,0-2.828-.976A10.383,10.383,0,0,0,9.6,12.61l-1,6L7.423,25.666A34.8,34.8,0,0,0,6.9,29.642a.7.7,0,0,0,.317.671,4.405,4.405,0,0,0,1.9.291H9.96L9.8,31.611q-4.058-.163-4.9-.163Z" transform="translate(0 20.547)" fill="#547826"/><path d="M7.107,32.748,6.816,32.5q.86-2.77,1.581-6.164l.437-2.072q.561-2.628,1.724-8.87a14.174,14.174,0,0,0,.263-1.764.677.677,0,0,0-.308-.642,3.385,3.385,0,0,0-1.376-.174H8.369l.146-.873a19.612,19.612,0,0,0,2.974-.468,22.747,22.747,0,0,0,2.985-.873l.3.265q-.706,2.706-1.447,6.016l-1.769,7.968a18.7,18.7,0,0,1,4.623-5.026,7.293,7.293,0,0,1,3.727-1.632,1.223,1.223,0,0,1,.916.305,1.359,1.359,0,0,1,.288.962,6.669,6.669,0,0,1-.146,1.284q-.073.334-.811,2.985l-.565,2.041a29.318,29.318,0,0,0-.916,3.773.7.7,0,0,0,.16.465.522.522,0,0,0,.394.191,1.257,1.257,0,0,0,.565-.22,10.021,10.021,0,0,0,1.578-1.047l.334.8Q17.649,32.75,16.4,32.748a1.042,1.042,0,0,1-.868-.362,1.72,1.72,0,0,1-.291-1.107,7.605,7.605,0,0,1,.231-1.69l.987-3.676.377-1.338c.154-.591.348-1.481.579-2.666a3.175,3.175,0,0,0,.06-.451.5.5,0,0,0-.163-.394.488.488,0,0,0-.388-.16,3.328,3.328,0,0,0-1.9.99,12.777,12.777,0,0,0-3.1,4.2,19.622,19.622,0,0,0-1.741,6.1,17.081,17.081,0,0,0-3.074.554" transform="translate(12.636 19.655)" fill="#547826"/><path d="M12.017,32.729l1.841-1.167.434.191a3.358,3.358,0,0,0-.04.482,2.17,2.17,0,0,0,.534,1.527,1.81,1.81,0,0,0,1.393.582,2.609,2.609,0,0,0,1.45-.465,4.18,4.18,0,0,0,1.3-1.572,20.62,20.62,0,0,0,1.336-3.425q.856-3.069,1.7-6.367A26.828,26.828,0,0,1,19.18,25.9a9.259,9.259,0,0,1-2.189,1.69,2.838,2.838,0,0,1-1.162.38,1.224,1.224,0,0,1-1.013-.639,3.864,3.864,0,0,1-.422-2.043,19.05,19.05,0,0,1,.16-2.155l.291-2.3q.4-3.339.405-3.858A2.263,2.263,0,0,0,15.1,15.93a.41.41,0,0,0-.388-.248A1.482,1.482,0,0,0,14,16a9.309,9.309,0,0,0-1.724,1.37l-.38-.83c.117-.077.671-.505,1.67-1.281a14.392,14.392,0,0,1,2.537-1.65,3.144,3.144,0,0,1,1.247-.348.985.985,0,0,1,.853.437,2.413,2.413,0,0,1,.322,1.413,9.925,9.925,0,0,1-.077,1.124l-.619,5.2a22.2,22.2,0,0,0-.177,2.74,2.107,2.107,0,0,0,.146.947.437.437,0,0,0,.38.231c.4,0,.982-.459,1.738-1.37a16.162,16.162,0,0,0,2.928-5.479,20.376,20.376,0,0,0,1.073-4.472q.856-.116,3.365-.713l.334.265a35.958,35.958,0,0,0-1.144,3.567l-1.393,4.952a50.111,50.111,0,0,1-2.249,6.744,13.505,13.505,0,0,1-3.753,5.074A6.824,6.824,0,0,1,15,35.628a3.636,3.636,0,0,1-1.652-.351,2.324,2.324,0,0,1-1.016-.859,2.754,2.754,0,0,1-.317-1.427Z" transform="translate(22.062 24.587)" fill="#547826"/><path d="M26.074,26.691l.348.816-2.175,1.6a16.908,16.908,0,0,1-2.569,1.53,3.939,3.939,0,0,1-1.461.38,1.527,1.527,0,0,1-1.19-.494,2.017,2.017,0,0,1-.451-1.4A6.217,6.217,0,0,1,18.693,28q.128-.638,1.216-5.417c.474-2.089.762-3.413.856-3.978H17.549l.2-.8a31.4,31.4,0,0,0,3.422-1A28.971,28.971,0,0,0,21.71,12.7q1.55-.411,3.653-1.167l.3.351q-.736,2.564-1.364,5.16h1.5a21.22,21.22,0,0,0,2.537-.12l.117.12-.2.739a5.1,5.1,0,0,0-.188.933c-.85-.077-1.7-.117-2.537-.117H23.97q-.492,1.691-1.29,5.525a26.308,26.308,0,0,0-.622,3.67.824.824,0,0,0,.2.594.667.667,0,0,0,.505.205,2.335,2.335,0,0,0,1.073-.348,12.092,12.092,0,0,0,2.235-1.558" transform="translate(32.534 21.389)" fill="#547826"/><path d="M21.062,23.362a13.064,13.064,0,0,1,1.29-5.642,7.755,7.755,0,0,1,3.031-3.028,8.429,8.429,0,0,1,4.466-1.43A6.239,6.239,0,0,1,32.6,13.8a3.446,3.446,0,0,1,1.624,1.5,5.348,5.348,0,0,1,.525,2.549,11.541,11.541,0,0,1-.742,4.01,8.3,8.3,0,0,1-1.681,2.971A11.926,11.926,0,0,1,28.893,27.1a7.611,7.611,0,0,1-3.233.713,4.807,4.807,0,0,1-3.479-1.107,4.555,4.555,0,0,1-1.119-3.348m3.479-.322a3.989,3.989,0,0,0,.665,2.594,2.534,2.534,0,0,0,2.021.771,2.4,2.4,0,0,0,1.667-.656,7.255,7.255,0,0,0,1.667-3.2,16.051,16.051,0,0,0,.725-4.749,3.7,3.7,0,0,0-.694-2.466,2.359,2.359,0,0,0-1.872-.8,2.737,2.737,0,0,0-1.855.725,6.121,6.121,0,0,0-1.45,2.771,17.673,17.673,0,0,0-.873,5.011" transform="translate(39.047 24.587)" fill="#547826" fill-rule="evenodd"/><path d="M14.641,39.221l.16-1h1c.853,0,1.358-.16,1.524-.482a36.661,36.661,0,0,0,1.2-5.828l1.276-7.72a25.406,25.406,0,0,0,.42-3.382.933.933,0,0,0-.331-.83,3.107,3.107,0,0,0-1.51-.234h-1.13l.157-.987,4.221.086,6.741-.146q3.249,0,4.572,1.37a4.942,4.942,0,0,1,1.33,3.613,6.65,6.65,0,0,1-2.16,4.983,7.434,7.434,0,0,1-5.351,2.069,8.912,8.912,0,0,1-2.768-.568l-.1-1.033a7.045,7.045,0,0,0,2.249.479,3.423,3.423,0,0,0,1.983-.656,4.767,4.767,0,0,0,1.567-2.023,7.264,7.264,0,0,0,.625-3.034,3.97,3.97,0,0,0-.973-2.914A3.8,3.8,0,0,0,26.519,20a10.378,10.378,0,0,0-2.28.22l-1,6-1.173,7.052a35.4,35.4,0,0,0-.525,3.978.7.7,0,0,0,.322.671,4.39,4.39,0,0,0,1.9.291H24.6l-.163,1q-4.058-.158-4.9-.16Z" transform="translate(27.143 34.655)" fill="#00493c"/><path d="M21.746,40.359l-.288-.248q.852-2.765,1.578-6.162l.437-2.069Q24.034,29.243,25.2,23a13.764,13.764,0,0,0,.26-1.761.682.682,0,0,0-.3-.642,3.4,3.4,0,0,0-1.376-.174h-.771l.146-.873a20.2,20.2,0,0,0,2.974-.465,23.042,23.042,0,0,0,2.985-.876l.305.26q-.715,2.714-1.447,6.019L26.2,32.463a18.577,18.577,0,0,1,4.626-5.026A7.3,7.3,0,0,1,34.549,25.8a1.207,1.207,0,0,1,.913.305,1.315,1.315,0,0,1,.288.962,7.042,7.042,0,0,1-.14,1.281c-.051.225-.32,1.221-.813,2.988l-.565,2.041a29.337,29.337,0,0,0-.916,3.77.692.692,0,0,0,.163.468.521.521,0,0,0,.388.188,1.249,1.249,0,0,0,.571-.217,10.227,10.227,0,0,0,1.578-1.047l.331.8c-2.7,2.012-4.478,3.017-5.305,3.017a1.046,1.046,0,0,1-.87-.365,1.733,1.733,0,0,1-.288-1.107,7.932,7.932,0,0,1,.228-1.687l.99-3.673.371-1.341q.235-.89.582-2.666a3.2,3.2,0,0,0,.06-.454.551.551,0,0,0-.548-.554,3.326,3.326,0,0,0-1.9.99,12.736,12.736,0,0,0-3.1,4.2,19.587,19.587,0,0,0-1.744,6.107,16.808,16.808,0,0,0-3.074.551" transform="translate(39.781 33.765)" fill="#00493c"/><path d="M40.635,31.562l.305.948q-3.613,2.928-5.063,2.928a.827.827,0,0,1-.708-.305,1.618,1.618,0,0,1-.337-1.047,32.082,32.082,0,0,1,1.016-4.926l.263-1.033q-1.768,2.8-2.452,3.627a14.847,14.847,0,0,1-2.149,2.215,7.8,7.8,0,0,1-2,1.221,2.734,2.734,0,0,1-1.016.248,1.462,1.462,0,0,1-1.233-.6,3.39,3.39,0,0,1-.448-1.995,15.894,15.894,0,0,1,.625-4.024,16.586,16.586,0,0,1,1.347-3.627,6.445,6.445,0,0,1,1.592-1.632A19.838,19.838,0,0,1,33.645,21.3a5.047,5.047,0,0,1,2.072-.422,6.729,6.729,0,0,1,1.581.188,7.314,7.314,0,0,1,1.538.539l1.347-.742.479.305c-.077.186-.18.485-.305.9l-.551,1.949-1.638,7.012a6.573,6.573,0,0,0-.217,1.41c0,.34.114.511.348.511a5.378,5.378,0,0,0,2.334-1.4m-3.8-8.465a6.589,6.589,0,0,0-1.261-.479,4.379,4.379,0,0,0-1.159-.163,2.369,2.369,0,0,0-1.712.688A9.074,9.074,0,0,0,31.18,26.55a20.87,20.87,0,0,0-1.1,5.42,1.419,1.419,0,0,0,.171.773.494.494,0,0,0,.411.245,1.193,1.193,0,0,0,.591-.245,10.988,10.988,0,0,0,2.263-2.3A18.38,18.38,0,0,0,35.646,27,12.145,12.145,0,0,0,36.7,23.825Z" transform="translate(49.714 38.687)" fill="#00493c" fill-rule="evenodd"/><path d="M32.883,35.428l-.317-.337q.8-2.594,1.464-5.388.342-1.46.636-3.382a14.838,14.838,0,0,0,.188-1.949,1.193,1.193,0,0,0-.086-.542.26.26,0,0,0-.234-.146,1.6,1.6,0,0,0-.665.248A9.76,9.76,0,0,0,32.3,25.04l-.348-.8q4.221-3.373,5.468-3.368a.732.732,0,0,1,.594.288,1.168,1.168,0,0,1,.248.788,34.108,34.108,0,0,1-1.059,4.969l-.191.773h.191a26.624,26.624,0,0,1,2.2-4.2,7.874,7.874,0,0,1,1.972-2.24,2.668,2.668,0,0,1,1.447-.38,2.456,2.456,0,0,1,.8.131,15.249,15.249,0,0,0-.668,4.035l-.331.205a2.284,2.284,0,0,0-1.538-.628q-1.323,0-2.394,1.764a22.208,22.208,0,0,0-2.62,8.465,22.075,22.075,0,0,0-3.194.582" transform="translate(59.242 38.697)" fill="#00493c" fill-rule="evenodd"/><path d="M36.266,35.437l-.294-.394.351-1.122q.317-.976.811-2.84.7-2.581,1.119-4.926a13.359,13.359,0,0,0,.231-1.732,1.559,1.559,0,0,0-.117-.674.281.281,0,0,0-.245-.131q-.552,0-2.263,1.475l-.434-.745q2.483-1.909,3.148-2.36a7.78,7.78,0,0,1,1.7-.933,2.364,2.364,0,0,1,.8-.188.858.858,0,0,1,.639.248.892.892,0,0,1,.245.654,6.583,6.583,0,0,1-.174,1.239q-.45,2.158-.651,2.8L40.53,28.4a20.328,20.328,0,0,1,3.97-5.128q2.7-2.389,4.292-2.389a1.019,1.019,0,0,1,.771.305,1.237,1.237,0,0,1,.288.876,9.455,9.455,0,0,1-.274,1.821q-.783,2.843-1.233,4.515a18.894,18.894,0,0,1,2.985-4.255,12.54,12.54,0,0,1,3.119-2.46,5.807,5.807,0,0,1,2.494-.8.925.925,0,0,1,.785.365,1.787,1.787,0,0,1,.285,1.136,16.838,16.838,0,0,1-.679,3.279l-.608,2.2q-.308,1.079-.7,3.222a13.179,13.179,0,0,0-.217,1.441c0,.351.108.525.331.525a.94.94,0,0,0,.479-.191,14.192,14.192,0,0,0,1.769-1.224l.394.728L56.3,34.139a10.131,10.131,0,0,1-1.9,1.022,3.509,3.509,0,0,1-1.127.277,1.029,1.029,0,0,1-.8-.351,1.4,1.4,0,0,1-.305-.976,8.87,8.87,0,0,1,.274-1.749l1.655-6.35a9.093,9.093,0,0,0,.277-1.6.794.794,0,0,0-.131-.5.416.416,0,0,0-.348-.174,1.587,1.587,0,0,0-.728.22,7.817,7.817,0,0,0-1.912,1.618,13.272,13.272,0,0,0-1.886,2.594,17.86,17.86,0,0,0-1.436,3.553,16.965,16.965,0,0,0-.708,3.322,19.109,19.109,0,0,0-3.091.394l-.348-.394q.334-.843,1.364-4.21A40.034,40.034,0,0,0,46.2,26.564a17.329,17.329,0,0,0,.391-2.577.774.774,0,0,0-.146-.511.476.476,0,0,0-.391-.177,2.483,2.483,0,0,0-1.347.671,14,14,0,0,0-2.845,3.57,15.206,15.206,0,0,0-1.709,4.035,19.512,19.512,0,0,0-.665,3.336,12.253,12.253,0,0,0-3.219.525" transform="translate(65.673 38.687)" fill="#00493c"/></g></g></svg>