<svg xmlns="http://www.w3.org/2000/svg" width="117.92" height="80.4" viewBox="0 0 117.92 80.4"><defs><clipPath id="silhouettes-path"><path fill="#fff" d="M0 0h117.92v80.4H0z" data-name="Rectangle 1274"/></clipPath></defs><g data-name="Group 16180"><g fill="#fff" clip-path="url(#silhouettes-path)" data-name="Group 16179"><path d="M70.046 50.251a20.1 20.1 0 1 0-22.171 0A32.185 32.185 0 0 0 26.8 80.401h5.36a26.8 26.8 0 1 1 53.6 0h5.36a32.183 32.183 0 0 0-21.074-30.15m-7.269-2.552a14.673 14.673 0 0 1-18.015-18.016 14.91 14.91 0 0 1 10.379-10.382 14.673 14.673 0 0 1 18.017 18.02 14.908 14.908 0 0 1-10.381 10.378" data-name="Path 33784"/><path d="M32.161 40.2c.782 0 1.541.1 2.306.165a25.382 25.382 0 0 1-.9-5.6c-.463.044-.931.071-1.4.071a14.792 14.792 0 0 1-14.724-15.549A14.818 14.818 0 0 1 30.307 5.476a14.648 14.648 0 0 1 10.807 2.943 14.817 14.817 0 0 1 3.6 3.993A25.382 25.382 0 0 1 49.451 9.9a20.221 20.221 0 0 0-3.44-4.33 20.082 20.082 0 1 0-24.936 31.28A32.185 32.185 0 0 0 0 67h5.36a26.963 26.963 0 0 1 26.8-26.8" data-name="Path 33785"/><path d="M96.847 36.851A20.081 20.081 0 1 0 68.471 9.9a25.464 25.464 0 0 1 4.738 2.51 14.834 14.834 0 0 1 3.6-3.993 14.652 14.652 0 0 1 10.806-2.942 14.744 14.744 0 0 1-1.854 29.365c-.473 0-.942-.027-1.4-.072a25.31 25.31 0 0 1-.9 5.6c.766-.067 1.523-.165 2.306-.165a26.964 26.964 0 0 1 26.8 26.8h5.36a32.186 32.186 0 0 0-21.075-30.15" data-name="Path 33786"/></g></g></svg>