<svg xmlns="http://www.w3.org/2000/svg" width="105.823" height="106.04" viewBox="0 0 105.823 106.04"><defs><clipPath id="syringe-path"><path fill="#fff" d="M0 0h105.823v106.04H0z" data-name="Rectangle 1271"/></clipPath></defs><g data-name="Group 16174"><g fill="#fff" clip-path="url(#syringe-path)" data-name="Group 16173"><path d="M19.288 106.041h-.077a2.331 2.331 0 0 1-1.495-.568.958.958 0 0 1-.08-.076L.667 88.541a.774.774 0 0 1-.04-.041 2.487 2.487 0 0 1-.523-2.4 4.331 4.331 0 0 1 1.175-1.933l.05-.049a4.307 4.307 0 0 1 1.885-1.154 2.4 2.4 0 0 1 2.437.524c.011.011.022.02.03.03l4.479 4.454.625.593a.173.173 0 0 0 .023.02l7.4 7.276 4.492 4.456.025.028c1.061 1.1.784 2.952-.659 4.4l-.024.025a4.129 4.129 0 0 1-2.754 1.271M3.655 86.66l15.861 15.755a1.625 1.625 0 0 0 .125-.108c.031-.034.06-.064.085-.095l-3.932-3.9-7.387-7.26-.629-.6-.029-.026-3.942-3.92-.031.034-.079.078a.792.792 0 0 0-.041.041" data-name="Path 33770"/><path d="M16.486 98.226a1.72 1.72 0 0 1-1.211-.5l-6.883-6.81a1.721 1.721 0 0 1-.036-2.466l10.713-10.736a1.711 1.711 0 0 1 1.217-.506 1.721 1.721 0 0 1 1.217.5l6.861 6.861a1.72 1.72 0 0 1 0 2.429L17.703 97.719a1.712 1.712 0 0 1-1.219.507m-4.472-8.566 4.462 4.417 8.243-8.284-4.431-4.43Z" data-name="Path 33771"/><path d="M36.427 96.266a2.05 2.05 0 0 1-1.481-.6l-7.716-7.57-.627-.59a.391.391 0 0 1-.04-.037l-7.957-7.963-8.375-8.191a2.213 2.213 0 0 1-.363-2.591 7 7 0 0 1 1.59-2.239l.04-.04a7.093 7.093 0 0 1 2.042-1.5l.037-.017a3.325 3.325 0 0 1 1.368-.327 2.132 2.132 0 0 1 1.157.32 1.689 1.689 0 0 1 .3.24l4.494 4.501 15.529 15.5 4.545 4.429a2.229 2.229 0 0 1 .375 2.6 7.254 7.254 0 0 1-1.59 2.235l-.061.062a5.626 5.626 0 0 1-2.908 1.758h-.029a2.738 2.738 0 0 1-.326.022m-7.453-11.253.621.584a.276.276 0 0 0 .028.025l7.069 6.933a5 5 0 0 0 .541-.483l.014-.016.079-.078a5.153 5.153 0 0 0 .533-.615l-3.859-3.75L18.46 72.093l-3.821-3.83a5.264 5.264 0 0 0-.689.6l-.059.06a.168.168 0 0 0-.02.022 4.922 4.922 0 0 0-.53.6l7.686 7.519Z" data-name="Path 33772"/><path d="M90.542 23.437a1.728 1.728 0 0 1-1.212-.5l-6.458-6.418a1.72 1.72 0 0 1 .441-2.756l9.168-4.612a1.722 1.722 0 0 1 1.995.324l1.859 1.879a1.718 1.718 0 0 1 .316 1.977l-4.569 9.157a1.722 1.722 0 0 1-1.261.928 1.556 1.556 0 0 1-.278.024m-3.55-7.674 3.069 3.052 2.958-5.921-.111-.113Z" data-name="Path 33773"/><path d="M94.186 13.353a1.72 1.72 0 0 1-1.217-2.937L102.885.5a1.72 1.72 0 1 1 2.432 2.434l-9.915 9.912a1.719 1.719 0 0 1-1.217.5" data-name="Path 33774"/><path d="M54.666 49.549a1.715 1.715 0 0 1-1.188-.476l-5.6-5.358a1.72 1.72 0 1 1 2.375-2.486l5.6 5.357a1.72 1.72 0 0 1-1.188 2.964" data-name="Path 33775"/><path d="M47.371 56.732a1.709 1.709 0 0 1-1.188-.477l-5.528-5.293a1.72 1.72 0 1 1 2.376-2.486l5.53 5.288a1.72 1.72 0 0 1-1.188 2.965" data-name="Path 33776"/><path d="M40.074 63.916a1.71 1.71 0 0 1-1.188-.476l-5.461-5.221a1.722 1.722 0 0 1 2.38-2.488l5.457 5.221a1.72 1.72 0 0 1-1.188 2.964" data-name="Path 33777"/><path d="M34.673 87.527a1.726 1.726 0 0 1-1.217-.5L19.03 72.613a1.723 1.723 0 0 1 0-2.432l55.281-55.484a8.69 8.69 0 0 1 6.062-2.657h.036a6.643 6.643 0 0 1 4.733 1.881l6.778 6.742a6.6 6.6 0 0 1 1.9 4.726 8.758 8.758 0 0 1-2.633 6.1L35.893 87.02a1.717 1.717 0 0 1-1.218.507Zm-12-16.13 12 11.975 54.074-54.308a5.292 5.292 0 0 0 1.626-3.675 3.184 3.184 0 0 0-.882-2.289l-6.775-6.739a3.231 3.231 0 0 0-2.309-.88h-.02a5.228 5.228 0 0 0-3.633 1.635Z" data-name="Path 33778"/><path d="M61.963 42.37a1.707 1.707 0 0 1-1.192-.48l-5.661-5.446a1.721 1.721 0 0 1 2.387-2.479l5.657 5.446a1.719 1.719 0 0 1-1.193 2.959" data-name="Path 33779"/></g></g></svg>