<?xml version="1.0" encoding="utf-8"?>
<!-- Generator: Adobe Illustrator 28.1.0, SVG Export Plug-In . SVG Version: 6.00 Build 0)  -->
<svg version="1.1" id="Layer_1" xmlns="http://www.w3.org/2000/svg" xmlns:xlink="http://www.w3.org/1999/xlink" x="0px" y="0px"
	 viewBox="0 0 512 512" style="enable-background:new 0 0 512 512;" xml:space="preserve">
<style type="text/css">
	.st0{fill:#295C3F;}
	.st1{fill:#FFFFFF;}
</style>
<path class="st0" d="M418.7,503.1H93.1c-46.7,0-84.5-37.8-84.5-84.5V92.9c0-46.7,37.8-84.5,84.5-84.5h325.7
	c46.7,0,84.5,37.8,84.5,84.5v325.7C503.3,465.3,465.4,503.1,418.7,503.1z"/>
<path id="Path_28581" class="st1" d="M181.8,388c-0.1-6.3-0.2-20.7-0.4-43.3c-0.3-29.1-0.5-58.1-0.5-86.9c0-12.5,0-32.4,0.1-59.9
	c0.1-26.2,0.4-51,0.7-74.5c2.2-0.1,5.3-0.2,9.2-0.3c6.6-0.3,13.8-0.4,21.6-0.4c11.3-0.1,22.7,0.8,33.9,2.5c9,1.3,17.8,3.9,26,7.6
	c7.7,3.7,14.4,9.3,19.3,16.4c4.7,7.3,7.1,15.8,6.9,24.5c0.1,8.6-2,17.1-6.2,24.5c-4.1,7.1-9.6,13.2-16.3,18.1
	c-7.4,5.1-15.6,8.9-24.2,11.2c-10.4,2.7-21.2,4.1-32,4.3l-4.1,0.1l5.1,37.4c0,0,8.9,0,14.7-0.2s13.3-0.3,22.7-0.3
	c10.7-0.1,21.3,1.6,31.4,5c8.3,2.6,15.9,7,22.2,12.9c5.4,5.3,9.7,11.6,12.9,18.4c2.9,6.8,4.4,14.2,4.3,21.6
	c0.2,9.7-2.2,19.2-7.1,27.6c-5,8.1-12,14.7-20.4,19.1c-12.6,6.6-26.3,10.8-40.5,12.1c-17.7,2.1-35.4,3.1-53.2,3.1
	c-5.1,0-10.5-0.1-16-0.4L181.8,388z M356.2,266.9c-8.5-8.5-18.7-15.3-29.8-19.8c-8.2-3.4-16.8-5.8-25.6-7.3
	c12-6,22.5-14.6,30.8-25.1c11.3-13.5,17.4-30.6,17.2-48.2c0.4-15.8-4.4-31.2-13.8-43.9c-9.8-12.3-22.8-21.6-37.5-27.1
	c-12.2-4.6-24.8-7.9-37.8-9.6c-16-2.4-32.2-3.5-48.4-3.5c-15.3,0-31,0.4-47.3,1.1c-16.2,0.7-25.6,1.1-27.9,1.2l-3.4,0.3
	c0,0,0.2,19.6,0.7,48.4s0.7,67.8,0.7,117.2c0.1,26,0,53.3-0.2,81.9c-0.2,28.6-0.5,58.9-0.9,91.2v3.3l3.3,0.3
	c2,0.2,11.8,0.6,29.5,1.1c17.6,0.6,34.7,0.8,51.3,0.8c20.3,0.2,40.6-1.6,60.5-5.3c17-3.2,33.5-8.9,49-16.8
	c15.8-7.8,29.2-19.6,38.9-34.3c9-14.1,13.7-30.5,13.5-47.3c0.3-11.5-1.7-22.9-5.8-33.6C369.2,282.5,363.4,274,356.2,266.9"/>
</svg>
